<?xml version="1.0" encoding="UTF-8"?>
<svg id="_图层_1" data-name="图层 1" xmlns="http://www.w3.org/2000/svg" viewBox="0 0 872.18 286.8">
  <defs>
    <style>
      .cls-1 {
        fill: #000001;
      }
    </style>
  </defs>
  <path class="cls-1" d="M250.58,26.43c-1.35-2.16-3.8-3.56-6.35-3.46-10.69-.1-21.39-.1-32.07-.03-3.86-.05-7.51,2.69-8.47,6.43-23.4,62.27-46.99,124.47-70.41,186.72-7.4-20.05-14.9-40.07-22.3-60.12-15.49-42.69-31.82-85.06-47.2-127.78-1.26-3.45-5.02-5.38-8.56-5.27-10.35-.02-20.71.03-31.06-.03-2.56.03-5.43-.13-7.54,1.57-1.99,1.49-3.22,4.3-2.43,6.72,16.91,43.17,34.61,86.02,51.71,129.11,13.74,34.73,27.2,69.58,40.57,104.46.83,2.18,2.86,3.49,4.85,4.53,14.23.21,28.5.37,42.72-.06,2.59-1.2,4.8-3.21,5.57-6.04,29.45-75.91,59.29-151.66,89.35-227.33,1.35-2.92,2.86-6.19,1.62-9.42Z"/>
  <path class="cls-1" d="M513.16,241.01c-.11-2.44-1.4-5.35-4.08-5.73-5.67-.55-11.86.72-17.07-2.15-4.71-2.45-6.6-8.07-6.59-13.08-.29-14.02.09-28.05-.41-42.05.88-17.98-.11-36.01.32-53.99-.09-1.68-.13-3.36-.02-5.02.12-13.33-.09-26.69.07-39.98-.66-5.65.07-11.35-.16-17.03.16-4.99.17-9.99.02-14.98.01-6.24.01-12.5-.42-18.74-.53-3.49-4.3-5.55-7.59-5.39-10.04,0-20.07-.04-30.1,0-4.34-.17-7.41,3.96-7.21,8.04-.08,56.05.01,112.1,0,168.14.23,9.93-.45,19.9.34,29.8.05,11.08,3.78,22.39,11.5,30.5,5.82,5.63,13.44,9.14,21.3,10.84,4.37.35,8.71,1.24,13.12,1.15,5.39.16,10.72-.85,16.1-1.15,2.9-.55,6.12-.38,8.66-2.12,2.42-1.94,2.44-5.28,2.41-8.1-.11-6.32.23-12.65-.19-18.95Z"/>
  <path class="cls-1" d="M691.83,98.96c.44-3.78-2.72-7.6-6.59-7.46-10.03-.06-20.05,0-30.07.04-4.04-.21-7.59,3.46-7.5,7.44-.08,23.7,0,47.4-.02,71.1-.18,9.99.41,20-.33,29.97-1.19,5.67-2.69,11.35-5.64,16.39-8.82,17.2-32.43,23.98-49.45,15.44-6.77-3.51-11.7-10.14-13.56-17.48-2.77-10.57-1.79-21.59-1.96-32.39-.04-27.62,0-55.25-.05-82.88.06-3.71-2.83-7.35-6.65-7.5-9.95-.22-19.9-.19-29.85-.1-2.8-.14-5.64,1.29-7.01,3.75-1.48,3.02-1.07,6.46-1.11,9.71.03,33.68.01,67.37,0,101.06.16,13.47,3.18,27.15,10.28,38.73,8.71,15.26,25.5,24.74,42.72,26.58,9.42.69,18.98.64,28.28-1.22,14.33-3.07,27.83-11.13,36.22-23.3.55,5.06.07,10.15.23,15.23.02,3.48,2.54,7.3,6.31,7.32,9.71.04,19.42.18,29.13.01,3.75-.02,7.04-3.59,6.68-7.35-.01-54.36,0-108.73-.06-163.09Z"/>
  <path class="cls-1" d="M415.49,239.8c-.61-3.47-4.38-4.46-7.4-4.12-4.59.35-9.96-1.81-11.17-6.66-1.13-5.25-.42-10.69-.64-16.02.03-8.67.03-17.34-.01-26.01.07-11.99.03-23.98.03-35.97-.01-10.6-1.43-21.41-6.06-31.05-5.61-11.89-16.04-21.15-28.18-26.03-15.71-6.51-33.17-7.37-49.91-5.71-15.33,1.56-30.73,6.23-42.97,15.87-9.48,7.49-16.86,17.98-19.53,29.84-.87,3.6.44,8.43,4.67,8.98,9.58,1.68,19.24,2.94,28.87,4.34,2.63.37,5.62-1.03,6.43-3.71,1.65-4.69,3.27-9.67,7.04-13.13,7-6.7,17.19-8.48,26.54-8.18,9.28.08,19.8,2.19,25.6,10.16,5.23,7.51,4.7,17.13,4.23,25.83-21.4,1.4-43.07,2.29-63.91,7.82-11.98,3.19-23.51,8.77-32.59,17.33-18.98,18.59-19.96,52.46-1.55,71.79,9.2,9.29,22.01,14.46,34.88,15.91,12.82,1.33,25.94.61,38.37-2.97,11.49-3.74,22.21-10.43,29.36-20.33,1.39,5.79,3.97,11.42,8.22,15.67,2.84,2.76,6.6,4.25,10.24,5.65,1.34.32,2.67.67,4.03,1.07,5.76.48,11.53,1.65,17.34.92,4.71-.7,9.56-.5,14.18-1.79,2.56-.87,4.21-3.66,4-6.31-.06-7.73.24-15.47-.11-23.19ZM348.95,220.81c-5.98,10.16-17.52,15.56-28.8,17.28-9.19,1.26-19.35.46-27.02-5.21-5.24-3.85-7.75-10.5-7.56-16.87-.28-8.12,4.92-15.72,12.05-19.32,11.19-5.9,24.08-6.91,36.46-8.13,6.4-.25,12.77-1.09,19.19-1.08-.5,11.12,2.1,23.41-4.32,33.33Z"/>
  <path class="cls-1" d="M867.44,239.78c-.8-3-2.79-6.12-6.27-6.06-28.86-.13-57.73.05-86.59-.08,27.39-33.87,54.93-67.62,82.5-101.35,3.43-4.31,8.41-8.31,8.53-14.28.08-6.68.04-13.36.01-20.03.2-3.45-2.92-6.73-6.39-6.51-43.71.1-87.42-.1-131.13.1-3.42-.14-6.25,3.02-6.17,6.35-.09,7.72.04,15.45.01,23.17-.13,2.79,1.97,4.85,4.08,6.34,27.85.07,55.71-.07,83.57.06-4.56,4.84-8.45,10.24-12.6,15.41-24.78,30.56-49.43,61.23-74.06,91.92-1.88,2.36-3.93,4.94-3.96,8.12-.08,6.71-.06,13.43-.04,20.15-.07,2.87,2.3,4.83,4.58,6.14,15.19.49,30.41.04,45.62.22,30.9-.09,61.8.17,92.69-.16l.52.2c2.88-1.32,5.18-4.09,5.1-7.39.06-7.44-.14-14.88,0-22.32Z"/>
</svg>